HIERARCHY
ROOT Hips
{
	OFFSET 0.000000 0.000000 0.000000
	CHANNELS 6 Xposition Yposition Zposition Zrotation Yrotation Xrotation 
	JOINT LHipJoint
	{
		OFFSET 0.000000 0.000000 0.000000
		CHANNELS 3 Zrotation Yrotation Xrotation
		JOINT LeftUpLeg
		{
			OFFSET 1.363060 -1.794630 0.839290
			CHANNELS 3 Zrotation Yrotation Xrotation
			JOINT LeftLeg
			{
				OFFSET 2.448110 -6.726130 0.000000
				CHANNELS 3 Zrotation Yrotation Xrotation
				JOINT LeftFoot
				{
					OFFSET 2.562200 -7.039590 0.000000
					CHANNELS 3 Zrotation Yrotation Xrotation
					JOINT LeftToeBase
					{
						OFFSET 0.157640 -0.433110 2.322550
						CHANNELS 3 Zrotation Yrotation Xrotation
						End Site
						{
							OFFSET 0.000000 0.000000 0.000000
						}
					}
				}
			}
		}
	}
	JOINT RHipJoint
	{
		OFFSET 0.000000 0.000000 0.000000
		CHANNELS 3 Zrotation Yrotation Xrotation
		JOINT RightUpLeg
		{
			OFFSET -1.305520 -1.794630 0.839290
			CHANNELS 3 Zrotation Yrotation Xrotation
			JOINT RightLeg
			{
				OFFSET -2.542530 -6.985550 0.000000
				CHANNELS 3 Zrotation Yrotation Xrotation
				JOINT RightFoot
				{
					OFFSET -2.568260 -7.056230 0.000000
					CHANNELS 3 Zrotation Yrotation Xrotation
					JOINT RightToeBase
					{
						OFFSET -0.164730 -0.452590 2.363150
						CHANNELS 3 Zrotation Yrotation Xrotation
						End Site
						{
							OFFSET 0.000000 0.000000 0.000000
						}
					}
				}
			}
		}
	}
	JOINT LowerBack
	{
		OFFSET 0.000000 0.000000 0.000000
		CHANNELS 3 Zrotation Yrotation Xrotation
		JOINT Spine
		{
			OFFSET 0.028270 2.035590 -0.193380
			CHANNELS 3 Zrotation Yrotation Xrotation
			JOINT Spine1
			{
				OFFSET 0.056720 2.048850 -0.042750
				CHANNELS 3 Zrotation Yrotation Xrotation
				JOINT Neck
				{
					OFFSET 0.000000 0.000000 0.000000
					CHANNELS 3 Zrotation Yrotation Xrotation
					JOINT Neck1
					{
						OFFSET -0.054170 1.746240 0.172020
						CHANNELS 3 Zrotation Yrotation Xrotation
						JOINT Head
						{
							OFFSET 0.104070 1.761360 -0.123970
							CHANNELS 3 Zrotation Yrotation Xrotation
							End Site
							{
								OFFSET 0.000000 0.000000 0.000000
							}
						}
					}
				}
				JOINT LeftShoulder
				{
					OFFSET 0.000000 0.000000 0.000000
					CHANNELS 3 Zrotation Yrotation Xrotation
					JOINT LeftArm
					{
						OFFSET 3.362410 1.200890 -0.311210
						CHANNELS 3 Zrotation Yrotation Xrotation
						JOINT LeftForeArm
						{
							OFFSET 4.983000 -0.000000 -0.000000
							CHANNELS 3 Zrotation Yrotation Xrotation
							JOINT LeftHand
							{
								OFFSET 3.483560 -0.000000 -0.000000
								CHANNELS 3 Zrotation Yrotation Xrotation
								JOINT LeftFingerBase
								{
									OFFSET 0.000000 0.000000 0.000000
									CHANNELS 3 Zrotation Yrotation Xrotation
									JOINT LeftHandIndex1
									{
										OFFSET 0.715260 -0.000000 -0.000000
										CHANNELS 3 Zrotation Yrotation Xrotation
										End Site
										{
											OFFSET 0.000000 0.000000 0.000000
										}
									}
								}
								JOINT LThumb
								{
									OFFSET 0.000000 0.000000 0.000000
									CHANNELS 3 Zrotation Yrotation Xrotation
									End Site
									{
										OFFSET 0.000000 0.000000 0.000000
									}
								}
							}
						}
					}
				}
				JOINT RightShoulder
				{
					OFFSET 0.000000 0.000000 0.000000
					CHANNELS 3 Zrotation Yrotation Xrotation
					JOINT RightArm
					{
						OFFSET -3.136600 1.374050 -0.404650
						CHANNELS 3 Zrotation Yrotation Xrotation
						JOINT RightForeArm
						{
							OFFSET -5.241900 -0.000000 -0.000000
							CHANNELS 3 Zrotation Yrotation Xrotation
							JOINT RightHand
							{
								OFFSET -3.444170 -0.000000 -0.000000
								CHANNELS 3 Zrotation Yrotation Xrotation
								JOINT RightFingerBase
								{
									OFFSET 0.000000 0.000000 0.000000
									CHANNELS 3 Zrotation Yrotation Xrotation
									JOINT RightHandIndex1
									{
										OFFSET -0.622530 -0.000000 -0.000000
										CHANNELS 3 Zrotation Yrotation Xrotation
										End Site
										{
											OFFSET 0.000000 0.000000 0.000000
										}
									}
								}
								JOINT RThumb
								{
									OFFSET 0.000000 0.000000 0.000000
									CHANNELS 3 Zrotation Yrotation Xrotation
									End Site
									{
										OFFSET 0.000000 0.000000 0.000000
									}
								}
							}
						}
					}
				}
			}
		}
	}
}
MOTION
Frames: 5
Frame Time: 0.008333
2.740425 17.863850 0.403201 -1.230791 -0.988613 7.535279 -2.385171 18.198190 4.094371 -15.048762 -5.387224 -12.290819 0.812470 0.250699 16.535427 20.969247 -3.946303 -6.126779 -6.876189 2.737323 -11.045080 -1.910501 -22.274068 -4.137722 22.490914 -4.694377 -7.159501 -3.180884 1.071988 21.581713 -33.293318 16.890393 -9.382093 6.174438 -3.638339 -10.129061 3.076329 4.566758 7.208371 11.484856 4.109069 13.079922 -13.577965 -10.005581 -30.548901 -3.888549 2.459734 -13.792633 7.156621 1.746137 10.793696 -1.005778 -0.905650 -8.158619 10.432558 33.468521 -5.246506 -22.429986 -23.505384 22.796671 4.489513 -18.791618 3.673451 2.044255 11.269446 0.764401 1.445555 11.980895 -0.000000 0.000000 0.000000 0.000000 0.000000 0.000000 0.000000 -21.638600 -42.003146 -7.740524 45.726662 24.574787 23.112197 -4.919035 15.893372 13.411009 -0.116512 -0.191709 4.739264 0.882204 -9.043314 -0.000000 0.000000 0.000000 0.000000 0.000000 0.000000 0.000000 
2.746830 17.861000 0.410681 -1.211224 -1.039475 7.540448 -2.401353 18.212917 4.058127 -15.085646 -5.360658 -12.271919 0.835294 0.288850 16.634145 20.971995 -3.961261 -6.239535 -6.884316 2.743853 -11.060680 -1.898581 -22.273182 -4.128814 22.443666 -4.624035 -7.238979 -3.219733 1.001737 21.740202 -33.281552 16.863929 -9.483146 6.194457 -3.627506 -10.207266 3.093523 4.552740 7.257004 11.457073 4.096768 13.083227 -13.560765 -10.001101 -30.556532 -3.890737 2.446427 -13.815146 7.176339 1.728911 10.873497 -1.003742 -0.925349 -8.118154 10.407408 33.474194 -5.238304 -22.412222 -23.410174 22.748327 4.504431 -18.932745 3.668679 2.075625 11.224928 0.778393 1.478121 11.973911 -0.000000 0.000000 0.000000 0.000000 0.000000 0.000000 0.000000 -21.589299 -42.003797 -7.739227 45.685378 24.567347 23.095544 -4.952530 16.208208 13.372718 -0.152023 -0.084559 4.755725 0.853571 -9.018207 -0.000000 0.000000 0.000000 0.000000 0.000000 0.000000 0.000000 
2.753625 17.857850 0.418853 -1.189362 -1.097067 7.541519 -2.416607 18.225053 4.023273 -15.127936 -5.330420 -12.238599 0.861424 0.330057 16.722213 20.979587 -3.967440 -6.361586 -6.895344 2.748969 -11.089862 -1.883621 -22.279541 -4.118318 22.394007 -4.549797 -7.328213 -3.265565 0.919794 21.917577 -33.287065 16.824309 -9.587367 6.203865 -3.613147 -10.269695 3.109280 4.538734 7.299143 11.419513 4.082618 13.106673 -13.542553 -9.986100 -30.573937 -3.892048 2.436276 -13.837463 7.200467 1.712316 10.972724 -1.000592 -0.947821 -8.067028 10.373248 33.494829 -5.237656 -22.385021 -23.350570 22.724083 4.503825 -19.090997 3.658452 2.106953 11.168130 0.789120 1.509786 11.964577 -0.000000 0.000000 0.000000 0.000000 0.000000 0.000000 0.000000 -21.527072 -42.018047 -7.732923 45.632804 24.553819 23.109987 -4.978558 16.542829 13.359993 -0.158802 -0.048702 4.770369 0.854866 -9.005051 -0.000000 0.000000 0.000000 0.000000 0.000000 0.000000 0.000000 
2.760105 17.854400 0.427236 -1.173977 -1.153095 7.540611 -2.432209 18.233682 3.991963 -15.157395 -5.301489 -12.210133 0.884233 0.375235 16.814620 20.975728 -3.973585 -6.500126 -6.905667 2.752874 -11.118165 -1.869043 -22.289564 -4.108002 22.356837 -4.462493 -7.423300 -3.322314 0.838203 22.122571 -33.282811 16.790579 -9.685034 6.222464 -3.603250 -10.348287 3.119927 4.531319 7.337466 11.406212 4.073492 13.140490 -13.533074 -9.986152 -30.591168 -3.885122 2.389189 -13.859510 7.206331 1.661923 11.083010 -1.003686 -0.973224 -8.006964 10.333019 33.521858 -5.245624 -22.370667 -23.300554 22.695498 4.517827 -19.245245 3.660096 2.151777 11.115011 0.813500 1.553878 11.954773 -0.000000 0.000000 0.000000 0.000000 0.000000 0.000000 0.000000 -21.477794 -42.011648 -7.723381 45.594084 24.506056 23.068887 -5.006209 16.930312 13.285435 -0.190089 -0.019772 4.765877 0.828499 -8.988057 -0.000000 0.000000 0.000000 0.000000 0.000000 0.000000 0.000000 
2.767050 17.850650 0.436269 -1.157517 -1.214774 7.541913 -2.447093 18.225935 3.964376 -15.190538 -5.288987 -12.170375 0.914119 0.420292 16.903131 20.953277 -3.959848 -6.642641 -6.923245 2.761096 -11.156236 -1.851784 -22.298259 -4.103813 22.324965 -4.370469 -7.518730 -3.391458 0.745533 22.334940 -33.302249 16.730977 -9.783776 6.233509 -3.588280 -10.424684 3.127947 4.530232 7.380250 11.389860 4.070550 13.157901 -13.519832 -9.983457 -30.612987 -3.873084 2.331173 -13.871218 7.203271 1.600673 11.207887 -1.009153 -0.997144 -7.938701 10.295331 33.553039 -5.286838 -22.409600 -23.272964 22.635879 4.554878 -19.355694 3.673640 2.195261 11.017548 0.845159 1.599913 11.936257 -0.000000 0.000000 0.000000 0.000000 0.000000 0.000000 0.000000 -21.432580 -41.998599 -7.702978 45.551912 24.450940 23.032048 -5.038460 17.322868 13.234075 -0.211595 0.044810 4.768305 0.813296 -8.966985 -0.000000 0.000000 0.000000 0.000000 0.000000 0.000000 0.000000 
